<?xml version="1.0" encoding="utf-8"?>
<!-- Generator: Adobe Illustrator 16.0.0, SVG Export Plug-In . SVG Version: 6.00 Build 0)  -->
<svg version="1.1" id="Layer_1" xmlns="http://www.w3.org/2000/svg" xmlns:xlink="http://www.w3.org/1999/xlink" x="0px" y="0px"
	 width="212.379px" height="68.432px" viewBox="0 0 212.379 68.432" enable-background="new 0 0 212.379 68.432"
	 xml:space="preserve">
<path fill="#000000" d="M0.752,8.139l0.002,0.012H0.749l0.002,0.014H0.746l0.002,0.012H0.743l0.002,0.012H0.74L0.742,8.2H0.738
	L0.74,8.213H0.735l0.002,0.012H0.732l0.002,0.014H0.729L0.731,8.25H0.726l0.002,0.012H0.723l0.002,0.012H0.72l0.002,0.014H0.717
	l0.002,0.012H0.713l0.002,0.012H0.711l0.002,0.014H0.708L0.71,8.336H0.705l0.002,0.013H0.702l0.002,0.012H0.699l0.002,0.014H0.697
	l0.002,0.012H0.693l0.002,0.013H0.69l0.002,0.013H0.687l0.002,0.013H0.684l0.002,0.012H0.681l0.002,0.014H0.679l0.002,0.012H0.676
	l0.002,0.013H0.673l0.002,0.012H0.67l0.002,0.013H0.667l0.002,0.013H0.664l0.002,0.012H0.661l0.002,0.014H0.658L0.66,8.548H0.655
	L0.657,8.56H0.653l0.002,0.013H0.65l0.002,0.013H0.647l0.002,0.012H0.643L0.645,8.61H0.64l0.002,0.013H0.637l0.002,0.013H0.634
	l0.002,0.012H0.632l0.002,0.013H0.629l0.002,0.013H0.627l0.002,0.012H0.623l0.002,0.014H0.62l0.002,0.012H0.617l0.002,0.012H0.615
	l0.002,0.012H0.612l0.002,0.014H0.609l0.002,0.012H0.606l0.002,0.013H0.604l0.002,0.013H0.602l0.002,0.012H0.598L0.6,8.808H0.593
	l0.002,0.014H0.59l0.002,0.012H0.587l0.002,0.012H0.585l0.002,0.013H0.582L0.584,8.87H0.579l0.002,0.013H0.576l0.002,0.012H0.573
	l0.002,0.014H0.57L0.572,8.92H0.568L0.57,8.932H0.565l0.002,0.012H0.562l0.002,0.013H0.559l0.002,0.013H0.556l0.002,0.013H0.553
	l0.002,0.013H0.551l0.002,0.012H0.548L0.55,9.019H0.543l0.002,0.013H0.54l0.002,0.012H0.538L0.54,9.055H0.535l0.002,0.013H0.532
	L0.534,9.08H0.529l0.002,0.012H0.526l0.002,0.012H0.523l0.002,0.014H0.521l0.002,0.012H0.518L0.52,9.141H0.513l0.002,0.013H0.511
	l0.002,0.014H0.508L0.51,9.179H0.505l0.002,0.012H0.503l0.002,0.014H0.5l0.002,0.013H0.497l0.002,0.012H0.493l0.002,0.013H0.489
	L0.49,9.252H0.486l0.002,0.013H0.484l0.002,0.013H0.48L0.482,9.29H0.478L0.48,9.302H0.475l0.002,0.013H0.472l0.002,0.014H0.469
	L0.471,9.34H0.467l0.002,0.012H0.463l0.002,0.014H0.461l0.002,0.013H0.458L0.46,9.39H0.455l0.002,0.013H0.453V9.41H0.448L0.45,9.422
	H0.445l0.002,0.012H0.442l0.002,0.014H0.439L0.441,9.46H0.436l0.002,0.012H0.434l0.002,0.011H0.43l0.002,0.014H0.428L0.43,9.509
	H0.425l0.002,0.012H0.422l0.002,0.013H0.419l0.002,0.013H0.416l0.002,0.012H0.413L0.415,9.57H0.411l0.002,0.013H0.409l0.002,0.012
	H0.403l0.002,0.013H0.401L0.403,9.62H0.398L0.4,9.632H0.395l0.002,0.012H0.392l0.002,0.014H0.39L0.392,9.67H0.387l0.002,0.012H0.383
	l0.002,0.012H0.38l0.002,0.014H0.377l0.002,0.012H0.374l0.002,0.013H0.371l0.002,0.013H0.368L0.37,9.757H0.365l0.002,0.012H0.362
	l0.002,0.014H0.359l0.002,0.012H0.356l0.002,0.012H0.354l0.002,0.013H0.351l0.002,0.014H0.349l0.002,0.013H0.346l0.002,0.012H0.343
	L0.345,9.87H0.34l0.002,0.012H0.337l0.002,0.013H0.333l0.002,0.013H0.33L0.332,9.92H0.328L0.33,9.933H0.323l0.002,0.014H0.321
	l0.001,0.011H0.318L0.32,9.969H0.315l0.002,0.013H0.312l0.002,0.013H0.31l0.002,0.013H0.307l0.002,0.012H0.303l0.002,0.013H0.3
	l0.002,0.012H0.297l0.002,0.013H0.295l0.002,0.012H0.293l0.002,0.014H0.29l0.002,0.012H0.287l0.002,0.012H0.283l0.002,0.013H0.279
	l0.002,0.013H0.277l0.002,0.013H0.274l0.002,0.013H0.271l0.002,0.013H0.268l0.002,0.013H0.265l0.002,0.012H0.262l0.002,0.007H0.26
	l0.002,0.013H0.257l0.002,0.013H0.253l0.002,0.014H0.251l0.001,0.011H0.247l0.002,0.013H0.245l0.002,0.012H0.242l0.002,0.014H0.239
	l0.002,0.012H0.237l0.002,0.012H0.233l0.002,0.014H0.229l0.002,0.012H0.227l0.002,0.013H0.224l0.002,0.012H0.221l0.002,0.014H0.219
	l0.002,0.012H0.216l0.002,0.013H0.213v0.011H0.208l0.002,0.012H0.206l0.002,0.013H0.203l0.002,0.014H0.201l0.002,0.012H0.198
	L0.2,10.472H0.195l0.002,0.012H0.192l0.002,0.013H0.189l0.002,0.013H0.186l0.002,0.013H0.183l0.002,0.014H0.181l0.002,0.012H0.178
	L0.18,10.56H0.173l0.002,0.013H0.17l0.002,0.013H0.167l0.002,0.012H0.164l0.002,0.013H0.161l0.002,0.013H0.158l0.002,0.012H0.155
	l0.002,0.013H0.153l0.002,0.013H0.15l0.002,0.013H0.147l0.002,0.012H0.144l0.002,0.014H0.141l0.002,0.012H0.138l0.002,0.012H0.136
	l0.002,0.012H0.133l0.002,0.014H0.13l0.002,0.012H0.127l0.002,0.013H0.123l0.002,0.013H0.12l0.002,0.011H0.118l0.002,0.013H0.115
	l0.002,0.013H0.112l0.001,0.01H0.108l0.002,0.012H0.105l0.002,0.013H0.103l0.002,0.013H0.1l0.002,0.013H0.098L0.1,10.891H0.095
	l0.002,0.014H0.092l0.002,0.012H0.089l0.002,0.013H0.087l0.002,0.012H0.084l0.002,0.014H0.081l0.002,0.012H0.078l0.002,0.012H0.075
	l0.002,0.014H0.073l0.002,0.012H0.071l0.002,0.012H0.068l0.002,0.012H0.065l0.002,0.014H0.062l0.002,0.012H0.059l0.002,0.013H0.057
	l0.002,0.013H0.054l0.002,0.012H0.051l0.002,0.012h-0.01l0.002,0.014H0.041l0.002,0.012H0.038l0.002,0.012H0.035l0.002,0.013H0.032
	l0.002,0.013H0.029l0.002,0.012H0.026l0.002,0.012H0.023L0.025,11.2H0.02l0.002,0.012H0.017l0.002,0.013H0.014l0.002,0.012H0.011
	l0.002,0.013H0.008l0.002,0.012H0.006l0.002,0.015H0.005l0,0H0.003l0.001,0.011h-0.005l7.989,51.358l194.479,5.788v-0.009h0.006
	h0.002l0.001-0.008h0.001h0.004l0.001-0.009h0.001h0.005l0.001-0.01h0.008V68.39h0.008v-0.009h0.006l0.001-0.009h0.006l0.001-0.007
	h0.007l0.001-0.01h0.005l0.001-0.009h0.008v-0.009h0.006l0.002-0.008h0.005l0.001-0.009h0.007l0.001-0.01h0.007l0.001-0.009h0.006
	v-0.008h0.006l0.002-0.009h0.006l0.002-0.01h0.005l0.001-0.008h0.007l0.001-0.009h0.006l0.002-0.009h0.004l0.002-0.009h0.006
	l0.002-0.009h0.007l0.001-0.009h0.004l0.001-0.008h0.007l0.001-0.008h0.007l0.002-0.009h0.006l0.002-0.01h0.004l0.002-0.009h0.006
	l0.001-0.008h0.007l0.001-0.009h0.005l0.001-0.009h0.007l0.002-0.009h0.006v-0.009h0.006l0.001-0.009h0.007l0.001-0.009h0.007
	l0.001-0.008h0.005v-0.01h0.008v-0.009h0.008l0.001-0.008h0.005l0.001-0.008h0.007l-0.006-0.001h0.006v-0.01h0.006l0.001-0.008
	h0.007l0.001-0.009h0.007l0.001-0.009h0.005v-0.008h0.008v-0.01h0.008l0.001-0.009h0.005l0.001-0.009h0.006L202.816,68h0.007
	l0.001-0.009h0.006v-0.01h0.008v-0.009h0.008l0.001-0.008h0.004l0.001-0.009h0.007l0.001-0.008h0.008V67.94h0.008v-0.009h0.004
	l0.002-0.008h0.007l0.001-0.01h0.005l0.001-0.008h0.007l0.001-0.009h0.006l0.002-0.01h0.004l0.002-0.008h0.007l0.001-0.009h0.007
	l0.001-0.01h0.007l0.001-0.008h0.004l0.002-0.009h0.006l0.002-0.009h0.004l0.002-0.008h0.007l0.001-0.01h0.006l0.001-0.009h0.007
	l0.002-0.007h0.004l0.002-0.01h0.006l0.002-0.008h0.006l0.001-0.01h0.005l0.001-0.009h0.007l0.001-0.008h0.007l0.002-0.009h0.004
	l0.002-0.008h0.006v-0.01h0.008l0.001-0.009h0.005l0.001-0.009h0.007l0.001-0.008h0.007v-0.009h0.006v-0.01h0.008l0.001-0.008h0.007
	l0.001-0.009h0.007l0.001-0.008h0.005v-0.009h0.008v-0.009h0.006v-0.009h0.008l0.001-0.009h0.006l0.001-0.008h0.005l0.001-0.009
	h0.008v-0.01h0.008v-0.009h0.007l0.001-0.008h0.005l0.001-0.009h0.007l0.001-0.01h0.006v-0.008h0.008V67.55h0.006l0.002-0.009h0.007
	l0.001-0.009h0.005l0.001-0.008h0.007l0.001-0.009h0.006l0.002-0.009h0.004l0.002-0.008h0.007l0.001-0.009h0.005l0.001-0.01h0.006
	l0.001-0.009h0.007l0.002-0.008h0.006l0.002-0.009h0.004l0.002-0.009h0.007l0.001-0.009h0.006l0.001-0.009h0.005l0.001-0.009h0.007
	l0.002-0.008h0.006l0.002-0.009h0.004l0.001-0.01h0.007l0.001-0.007h0.007l0.001-0.01h0.005l0.002-0.008h0.006v-0.008h0.008v-0.011
	h0.006l0.001-0.008h0.007l0.001-0.009h0.007l0.001-0.009h0.005v-0.009h0.008v-0.009h0.008l0.001-0.009h0.005l0.001-0.008h0.006
	l0.001-0.009h0.007l0.001-0.01h0.008v-0.008h0.006v-0.009h0.007l0.001-0.009h0.005l0.001-0.008h0.007l0.001-0.01h0.008v-0.008h0.008
	v-0.009h0.004l0.002-0.009h0.007l0.001-0.008h0.007l0.001-0.01h0.005l0.001-0.009h0.006l0.002-0.008h0.006l0.002-0.009h0.005
	l0.001-0.009h0.007l0.001-0.01h0.006l0.001-0.008h0.005l0.002-0.009h0.006l0.002-0.009h0.006l0.002-0.009h0.005l0.001-0.008h0.006
	l0.001-0.009h0.007l0.002-0.009h0.004l0.002-0.008h0.006l0.002-0.009h0.006l0.001-0.009h0.005l0.001-0.009h0.007l0.001-0.009h0.007
	l0.002-0.009h0.004v-0.009h0.008v-0.009h0.008l0.001-0.009h0.007l0.001-0.008h0.005l0.001-0.009h0.007v-0.01h0.006v-0.008h0.008
	l0.001-0.008h0.007l0.001-0.009h0.006l0.001-0.009h0.006v-0.009h0.008v-0.009h0.008l0.001-0.009h0.004l0.001-0.009h0.007
	l0.001-0.008h0.007l0.001-0.01h0.006v-0.009h0.008v-0.008h0.007l0.001-0.009h0.005l0.001-0.009h0.007l0.001-0.009h0.008v-0.009
	h0.004l-0.023,0.02h0.006l0.002-0.009h0.007l0.001-0.008h0.005l0.001-0.008h0.006l0.001-0.009h0.007l0.002-0.01h0.004l0.002-0.008
	h0.007l0.001-0.009h0.007l0.001-0.009h0.004l0.001-0.008h0.007l0.002-0.01h0.006l0.002-0.009h0.006l0.002-0.009h0.004l0.001-0.008
	h0.007l0.001-0.009h0.005l0.001-0.01h0.007l0.002-0.009h0.006v-0.008h0.008l0.001-0.008h0.005l0.001-0.009h0.007l0.001-0.009h0.007
	l0.002-0.009h0.004v-0.009h0.008v-0.008h0.008l0.001-0.009h0.005l0.001-0.01h0.006l0.001-0.009h0.008v-0.008h0.006v-0.009h0.008
	l0.001-0.01h0.007l0.001-0.009h0.004l0.001-0.008h0.008v-0.009h0.008v-0.009h0.006v-0.008h0.007l0.001-0.009h0.007l0.001-0.009
	h0.005l0.001-0.008h0.008v-0.009h0.006l0.002-0.01h0.004l0.002-0.008h0.007l0.001-0.009h0.007l0.001-0.009h0.008V66.49h0.004
	l0.002-0.01h0.006l0.002-0.009h0.005l0.001-0.008h0.007l0.001-0.009h0.006l0.001-0.009h0.007l0.002-0.01h0.004l0.002-0.008h0.007
	l0.001-0.008h0.006l0.001-0.009h0.005l0.001-0.009h0.007l0.002-0.009h0.004l0.002-0.009h0.006v-0.009h0.008l0.001-0.008h0.007
	l0.001-0.009h0.005l0.001-0.01h0.007l0.002-0.009h0.006v-0.008h0.006v-0.009h0.008l0.001-0.01h0.007l0.001-0.008h0.004l0.001-0.009
	h0.008V66.29h0.008v-0.008h0.006l0.001-0.009h0.007l0.001-0.009h0.006L212.32,0.57l0.061-0.57L0.752,8.139z M0.01,11.268
	L0.01,11.268l0.001,0.006l0,0L0.01,11.268z M0.004,11.276L0.004,11.276l0.001,0.009l0,0L0.004,11.276z"/>
<g>
	<polygon fill="#42528c" points="8.951,59.977 0.962,8.618 211.441,0.522 203.43,65.766 	"/>
	<path fill="#000000" d="M203.869,66.281l-0.455-0.015L8.521,60.465L0.382,8.139l211.627-8.14l-0.071,0.583L203.869,66.281z
		 M9.381,59.491l193.607,5.762l7.885-64.208L1.543,9.096L9.381,59.491z"/>
</g>
</svg>
